<?xml version="1.0" encoding="UTF-8"?>
<svg version="1.1" xmlns="http://www.w3.org/2000/svg" width="1900" height="1214">
<path d="M0 0 C627 0 1254 0 1900 0 C1900 400.62 1900 801.24 1900 1214 C1273 1214 646 1214 0 1214 C0 813.38 0 412.76 0 0 Z " fill="#FEFEFE" transform="translate(0,0)"/>
<path d="M0 0 C1.12431301 -0.00216774 1.12431301 -0.00216774 2.27133942 -0.00437927 C32.57213079 -0.05134709 62.56961392 1.51862915 92.75 4.3125 C94.77131104 4.49588483 96.79263249 4.67915489 98.81396484 4.86230469 C104.31569858 5.36539459 109.81485109 5.8916304 115.3125 6.4375 C116.12241394 6.51754272 116.93232788 6.59758545 117.76678467 6.68005371 C120.01345507 6.9060188 122.25877737 7.14206089 124.50390625 7.3828125 C125.74470947 7.51445801 126.9855127 7.64610352 128.26391602 7.78173828 C131.88537016 8.33311032 135.23753453 9.28542029 138.75 10.3125 C140.52149572 10.60785498 142.30108568 10.85925578 144.0859375 11.05859375 C145.06949219 11.17396484 146.05304687 11.28933594 147.06640625 11.40820312 C148.07574219 11.52099609 149.08507813 11.63378906 150.125 11.75 C166.31798683 13.56714128 182.18334407 16.72747483 198.09790039 20.16430664 C200.81239603 20.74997757 203.52817196 21.32940616 206.24414062 21.90820312 C215.70908262 23.93625936 225.12289196 26.08864641 234.49780273 28.50024414 C237.2403752 29.18521814 239.97292127 29.78877721 242.75 30.3125 C242.75 30.9725 242.75 31.6325 242.75 32.3125 C243.925625 32.395 245.10125 32.4775 246.3125 32.5625 C255.20071931 33.54695467 264.22377539 36.14239149 272.51953125 39.45703125 C275.79299148 40.71252651 279.11422761 41.8227062 282.4375 42.9375 C283.08009766 43.15591553 283.72269531 43.37433105 284.38476562 43.59936523 C287.81542453 44.74574436 291.18413276 45.69887084 294.75 46.3125 C294.75 46.9725 294.75 47.6325 294.75 48.3125 C295.76006104 48.43036865 296.77012207 48.5482373 297.81079102 48.66967773 C301.68769383 49.30233253 305.07577076 50.29799285 308.77734375 51.59765625 C309.41112442 51.81820175 310.04490509 52.03874725 310.69789124 52.26597595 C312.6965772 52.9630118 314.69202627 53.66882764 316.6875 54.375 C318.05252901 54.85280066 319.41776176 55.33001967 320.78320312 55.80664062 C324.10784861 56.96855183 327.42965369 58.13835132 330.75 59.3125 C330.75 59.9725 330.75 60.6325 330.75 61.3125 C332.008125 61.539375 333.26625 61.76625 334.5625 62 C339.23125459 63.04232661 343.25082382 64.78381973 347.5546875 66.83984375 C350.57931268 68.23383359 353.62629509 69.48020626 356.72094727 70.70605469 C364.97441276 73.98760937 372.75892336 77.81608782 380.55859375 82.0546875 C384.61729883 84.2596254 388.7335505 86.33074866 392.875 88.375 C403.92555636 93.85616283 414.77872958 99.61934738 425.359375 105.96484375 C427.77520571 107.42667956 427.77520571 107.42667956 430.75 108.3125 C430.75 108.9725 430.75 109.6325 430.75 110.3125 C431.2759375 110.39371094 431.801875 110.47492188 432.34375 110.55859375 C435.67153549 111.60122784 438.36897849 113.46327199 441.25 115.375 C441.8672998 115.77912109 442.48459961 116.18324219 443.12060547 116.59960938 C444.39038893 117.43244656 445.65845736 118.26790437 446.92480469 119.10595703 C448.58284717 120.20200384 450.24806952 121.28716992 451.9140625 122.37109375 C459.97850247 127.65872787 467.7489622 133.29616266 475.26953125 139.3359375 C477.80178982 141.35376874 480.39023276 143.27118519 483 145.1875 C495.15342163 154.29510098 506.69514522 164.04624574 517.73046875 174.4765625 C520.1431763 176.75693375 522.60533851 178.96249441 525.125 181.125 C530.24635746 185.5554677 535.13780584 190.25974774 539.4375 195.5 C541.73421608 198.29330334 544.18831143 200.76216308 546.75 203.3125 C552.3707383 209.2113977 557.67933821 215.31341054 562.75 221.6875 C563.21873535 222.27007568 563.6874707 222.85265137 564.17041016 223.45288086 C566.63979984 226.60196484 568.49444316 229.50302642 569.75 233.3125 C570.41 233.3125 571.07 233.3125 571.75 233.3125 C573.25654113 235.26196422 574.63833553 237.20256665 576 239.25 C576.40114014 239.84248535 576.80228027 240.4349707 577.21557617 241.04541016 C578.02421559 242.2419177 578.82982916 243.44047608 579.63232422 244.64111328 C580.59248498 246.07695002 581.56283569 247.50596335 582.53515625 248.93359375 C590.75 261.05626598 590.75 261.05626598 590.75 265.3125 C591.41 265.3125 592.07 265.3125 592.75 265.3125 C593.08 266.9625 593.41 268.6125 593.75 270.3125 C589.79 269.9825 585.83 269.6525 581.75 269.3125 C581.75 268.6525 581.75 267.9925 581.75 267.3125 C580.88117188 267.25191406 580.01234375 267.19132812 579.1171875 267.12890625 C577.96476562 267.04511719 576.81234375 266.96132813 575.625 266.875 C574.48804688 266.79378906 573.35109375 266.71257812 572.1796875 266.62890625 C568.9959522 266.33519035 565.89489093 265.88125687 562.75 265.3125 C562.75 264.6525 562.75 263.9925 562.75 263.3125 C561.56664062 263.36921875 560.38328125 263.4259375 559.1640625 263.484375 C552.33858614 263.47904884 545.78122694 261.93411312 539.125 260.5625 C536.36280115 260.00627865 533.59939963 259.45615604 530.8359375 258.90625 C530.15021667 258.76902527 529.46449585 258.63180054 528.75799561 258.49041748 C521.52042624 257.04996486 514.25213764 255.80112578 506.97021484 254.60644531 C502.10544851 253.79183721 497.49707974 252.67255935 492.75 251.3125 C489.26376109 250.58522369 485.76002751 249.97560338 482.25 249.375 C481.2496875 249.20170166 480.249375 249.02840332 479.21875 248.84985352 C471.10688494 247.47527263 462.97325417 246.39884067 454.80981445 245.38476562 C448.45576993 244.57997436 442.2386038 243.47185301 435.97265625 242.13671875 C430.14251482 240.94885141 424.25463113 240.0898257 418.375 239.1875 C417.26858154 239.01677979 416.16216309 238.84605957 415.0222168 238.67016602 C410.38247451 237.96630418 405.75569436 237.28954213 401.0859375 236.8203125 C397.14559203 236.40820951 393.32754344 235.65461101 389.45117188 234.84765625 C384.32845795 233.83274402 379.16454721 233.08036407 374 232.3125 C372.83291504 232.13807373 371.66583008 231.96364746 370.46337891 231.78393555 C361.75922752 230.51997222 353.05927435 229.57880948 344.29003906 228.90820312 C337.84281475 228.40531475 337.84281475 228.40531475 336.75 227.3125 C333.84082442 226.96092125 330.94532701 226.66722742 328.02734375 226.41015625 C327.13447159 226.32753036 326.24159943 226.24490448 325.32167053 226.15977478 C322.44398342 225.89395327 319.56580487 225.63404022 316.6875 225.375 C312.94630801 225.03582688 309.20541175 224.69364441 305.46484375 224.34765625 C304.54707153 224.26278961 303.62929932 224.17792297 302.68371582 224.09048462 C295.84204659 223.44505997 289.03427917 222.63236698 282.2199707 221.74780273 C277.44705543 221.14904751 272.6678598 220.71407504 267.875 220.3125 C261.04891823 219.71988197 254.24228284 219.0502992 247.4375 218.25 C240.39584553 217.42625046 233.38378301 216.95045568 226.30078125 216.65625 C222.44406812 216.43109008 218.65951941 215.89409979 214.8359375 215.34765625 C206.26256642 214.16773187 197.70103087 213.68037943 189.0625 213.25 C186.77906887 213.13383603 184.49578432 213.01585874 182.21269226 212.89320374 C180.17107377 212.7837904 178.12912246 212.68063939 176.0871582 212.57788086 C172.75 212.3125 172.75 212.3125 170.80175781 211.81469727 C167.46013792 210.99678769 164.04537712 210.97102058 160.62109375 210.8125 C159.8112352 210.77216644 159.00137665 210.73183289 158.16697693 210.6902771 C155.50735466 210.55964959 152.84747935 210.43562796 150.1875 210.3125 C149.27816711 210.26925598 148.36883423 210.22601196 147.4319458 210.18145752 C134.4997385 209.56785151 121.56646482 209.05778409 108.625 208.6875 C107.92422333 208.66703613 107.22344666 208.64657227 106.50143433 208.62548828 C101.91799057 208.49442249 97.33468342 208.3920759 92.75 208.3125 C91.75699387 208.29509766 91.75699387 208.29509766 90.743927 208.27734375 C77.05211457 208.06563494 64.24590046 209.27404711 51.75 215.3125 C50.80125 215.745625 49.8525 216.17875 48.875 216.625 C45.80783229 219.060692 44.5224685 221.83320999 42.75 225.3125 C42.09 225.3125 41.43 225.3125 40.75 225.3125 C40.72716446 226.48695679 40.70432892 227.66141357 40.68080139 228.87145996 C40.46313529 240.04831141 40.24263828 251.22510408 40.01950932 262.40184784 C39.90493907 268.14515118 39.791298 273.8884695 39.67993164 279.63183594 C39.57202001 285.19514149 39.46147039 290.75838942 39.34924126 296.3216095 C39.30728441 298.42298095 39.26621048 300.52437027 39.2261219 302.6257782 C39.20701696 303.62434341 39.18791203 304.62290863 39.16822815 305.6517334 C39.1519616 306.51633934 39.13569506 307.38094528 39.11893559 308.2717514 C39.09523616 309.36736641 39.07153673 310.46298141 39.04711914 311.59179688 C39.0195009 312.87002166 39.0195009 312.87002166 38.99132472 314.17406917 C38.85513616 320.02894511 38.64934737 325.875406 38.37474477 331.7253325 C37.7822836 344.46175899 37.60665825 357.16669734 37.62060547 369.91503906 C37.61924517 372.05358917 37.61746175 374.19213904 37.61529541 376.33068848 C37.61079687 382.05770618 37.61247861 387.78470556 37.6156745 393.51172352 C37.61823649 399.55076452 37.61585012 405.58980414 37.61428833 411.62884521 C37.61247827 421.75875119 37.6148428 431.88864983 37.61962891 442.01855469 C37.62507516 453.67933179 37.62330151 465.3400914 37.6178025 477.00086808 C37.61324509 487.07376957 37.61263346 497.14666583 37.61524117 507.21956801 C37.61678878 513.20916896 37.61703965 519.19876172 37.61370468 525.18836212 C37.61078731 530.81927294 37.61287166 536.4501615 37.61859894 542.08106995 C37.61990576 544.13031223 37.61956846 546.17955643 37.61733627 548.22879791 C37.6059391 559.76750404 37.8448688 571.24564401 38.50988293 582.76621056 C38.87228192 589.1773477 39.00038499 595.59597297 39.11714172 602.01565552 C39.13301142 602.86788822 39.14888111 603.72012093 39.1652317 604.59817886 C39.18160368 605.48101421 39.19797565 606.36384956 39.21484375 607.2734375 C39.25257766 609.18692502 39.29056498 611.10040755 39.32878113 613.0138855 C39.43085106 618.16564242 39.52905909 623.31746604 39.62638092 628.46931458 C39.70880592 632.80934914 39.79338776 637.14934065 39.87794495 641.48933411 C40.15133126 655.52751246 40.41675898 669.56583621 40.68030548 683.60420227 C40.750843 687.35735446 40.82164103 691.11050165 40.89251709 694.86364746 C41.20123387 711.21612249 41.50634176 727.56866106 41.80775833 743.92127228 C41.87470226 747.54637709 41.94205841 751.17147407 42.00949097 754.79656982 C42.11596297 760.52868167 42.22081839 766.26082102 42.32445717 771.99298477 C42.36263581 774.09320086 42.40129129 776.19340834 42.44048119 778.2936058 C42.6163601 787.73901675 42.78311821 797.18480413 42.83544922 806.63183594 C42.84788162 808.54267975 42.84788162 808.54267975 42.86056519 810.49212646 C42.75 813.3125 42.75 813.3125 41.75 814.3125 C39.64405572 814.41724558 37.53456234 814.45106457 35.42602539 814.45776367 C34.43576103 814.46280159 34.43576103 814.46280159 33.42549133 814.46794128 C31.23286075 814.47747695 29.04030631 814.4793957 26.84765625 814.48046875 C25.3292996 814.48367955 23.81094327 814.48704349 22.29258728 814.49055481 C19.10561404 814.49655265 15.91866794 814.49839404 12.73168945 814.49780273 C8.641304 814.49770108 4.55109203 814.51135343 0.46074772 814.52857494 C-2.67644556 814.53967571 -5.81359666 814.54172254 -8.95080757 814.54119301 C-10.4591386 814.54237603 -11.96747061 814.54681575 -13.47578239 814.55452538 C-15.58285659 814.56428662 -17.68955098 814.56146282 -19.79663086 814.55541992 C-20.99718613 814.55684494 -22.19774139 814.55826996 -23.43467712 814.55973816 C-26.25 814.3125 -26.25 814.3125 -28.25 812.3125 C-28.42131042 809.55583191 -28.42131042 809.55583191 -28.30932617 805.99291992 C-28.29171738 805.34361008 -28.27410858 804.69430023 -28.25596619 804.02531433 C-28.19482658 801.86411497 -28.11897751 799.70369235 -28.04296875 797.54296875 C-27.99682171 796.02674358 -27.9515324 794.51049209 -27.90705872 792.99421692 C-27.78673997 788.97911145 -27.65376659 784.96451569 -27.51849365 780.94989014 C-27.41231417 777.73818091 -27.3148784 774.52623775 -27.21805859 771.31423473 C-27.10023063 767.4112173 -26.97842352 763.50832771 -26.85546875 759.60546875 C-26.83295736 758.8893511 -26.81044598 758.17323345 -26.78725243 757.43541527 C-26.5550786 750.15941712 -26.28711484 742.88855392 -25.90438843 735.61880207 C-24.98450694 717.84206315 -24.60205515 700.04449074 -24.19921875 682.25 C-24.17704214 681.27367615 -24.15486553 680.29735229 -24.1320169 679.29144287 C-22.82460911 621.02831982 -22.98078223 562.75506506 -23.04680382 504.48100138 C-23.0597943 492.94712849 -23.06528177 481.41327455 -23.06469727 469.87939453 C-23.03099504 393.1886415 -23.03099504 393.1886415 -23.52099609 316.5 C-23.53933968 314.69949094 -23.53933968 314.69949094 -23.55805385 312.86260796 C-23.67356871 301.68572372 -23.79969779 290.50903766 -23.95078325 279.33257484 C-24.00330409 275.40420938 -24.05185937 271.47579963 -24.10001588 267.54737854 C-24.1340077 264.93111426 -24.17457779 262.31501375 -24.2156353 259.69885254 C-24.34015654 250.50489209 -24.09655454 241.47807812 -23.25 232.3125 C-23.91 232.3125 -24.57 232.3125 -25.25 232.3125 C-25.38535156 231.66023437 -25.52070312 231.00796875 -25.66015625 230.3359375 C-27.32390457 223.58131859 -29.48659064 220.17192591 -35.25 216.3125 C-36.03375 215.755625 -36.8175 215.19875 -37.625 214.625 C-47.25288845 209.81105577 -56.98065756 209.15826025 -67.5703125 209.14453125 C-68.56662186 209.14038712 -69.56293121 209.13624298 -70.58943176 209.13197327 C-73.85132502 209.12226801 -77.11309444 209.12232672 -80.375 209.125 C-81.49504425 209.12493958 -82.6150885 209.12487915 -83.76907349 209.12481689 C-100.25790866 209.13739631 -116.71449349 209.46610367 -133.1875 210.1875 C-134.11266418 210.22670563 -135.03782837 210.26591125 -135.99102783 210.30630493 C-147.28768622 210.79763419 -158.50088286 211.64342971 -169.74267578 212.85961914 C-175.47246023 213.46557591 -181.21188926 213.77489149 -186.96484375 214.06640625 C-190.07713129 214.22095008 -190.07713129 214.22095008 -192.38354492 214.78515625 C-196.3714793 215.51881933 -200.35539032 215.73708822 -204.3984375 215.99609375 C-206.22786967 216.12036789 -208.05729658 216.24471945 -209.88671875 216.36914062 C-212.74061718 216.55935181 -215.59460696 216.74801076 -218.44873047 216.93481445 C-228.66254764 217.60783173 -238.77545064 218.39913959 -248.91162109 219.85083008 C-254.05146549 220.56162763 -259.2043663 221.0178169 -264.375 221.4375 C-265.40109375 221.52241699 -266.4271875 221.60733398 -267.484375 221.69482422 C-274.75894032 222.26689051 -281.95161034 222.56908401 -289.25 222.3125 C-289.25 222.9725 -289.25 223.6325 -289.25 224.3125 C-290.24443115 224.39814209 -291.2388623 224.48378418 -292.26342773 224.57202148 C-295.9407534 224.88991172 -299.6175396 225.21370068 -303.29418945 225.53930664 C-304.88779764 225.67959878 -306.48154895 225.81827473 -308.07543945 225.95532227 C-310.36188371 226.1521967 -312.64775607 226.35481234 -314.93359375 226.55859375 C-315.65026718 226.6190538 -316.36694061 226.67951385 -317.10533142 226.74180603 C-320.4682671 226.78587216 -320.4682671 226.78587216 -323.25 228.3125 C-325.27393242 228.58873968 -327.30611007 228.80494423 -329.33984375 228.99609375 C-331.22993164 229.18075195 -331.22993164 229.18075195 -333.15820312 229.36914062 C-335.80908478 229.62085352 -338.46022788 229.86973398 -341.11132812 230.11914062 C-347.50622659 230.74469329 -353.74582646 231.49840137 -360.02612305 232.85961914 C-363.55448693 233.57815191 -367.10834562 233.94470868 -370.6875 234.3125 C-376.29693257 234.89223083 -381.79421843 235.74832865 -387.33764648 236.78613281 C-392.39487881 237.70015686 -397.47998901 238.42943971 -402.5625 239.1875 C-410.90406511 240.44681722 -419.20968894 241.81394007 -427.5 243.375 C-435.85934575 244.94719504 -444.22970332 246.21067064 -452.66894531 247.27368164 C-457.80376016 247.9299489 -462.84484115 248.78843617 -467.91357422 249.83935547 C-471.23977458 250.51293711 -474.58552297 251.03377562 -477.9375 251.5625 C-486.47282592 252.94416113 -494.95299779 254.58805145 -503.4375 256.25 C-513.00698574 258.12241027 -522.58041783 259.95320456 -532.1875 261.625 C-533.09717529 261.78411865 -534.00685059 261.9432373 -534.9440918 262.10717773 C-538.89583917 262.78578325 -542.83250648 263.39887904 -546.81640625 263.85546875 C-550.0754198 263.93537724 -550.0754198 263.93537724 -551.25 265.3125 C-552.84544732 265.65654639 -554.45242231 265.94750521 -556.0625 266.21484375 C-557.05636719 266.38306641 -558.05023437 266.55128906 -559.07421875 266.72460938 C-560.12222656 266.89798828 -561.17023438 267.07136719 -562.25 267.25 C-568.65120244 268.31686707 -575.00729781 269.40031704 -581.3125 270.94750977 C-583.25 271.3125 -583.25 271.3125 -587.25 271.3125 C-586.55150228 267.3379496 -584.62107231 264.04675902 -582.6875 260.5625 C-582.35814453 259.96050781 -582.02878906 259.35851562 -581.68945312 258.73828125 C-580.8803535 257.26079497 -580.06572338 255.78633964 -579.25 254.3125 C-578.59 254.3125 -577.93 254.3125 -577.25 254.3125 C-577.03988281 253.49523437 -576.82976562 252.67796875 -576.61328125 251.8359375 C-574.86187152 247.30937139 -572.31402487 243.81869194 -569.4375 239.9375 C-568.8607251 239.15020508 -568.2839502 238.36291016 -567.68969727 237.55175781 C-561.80622867 229.59003317 -555.62555353 221.88392006 -549.25 214.3125 C-548.84502289 213.82600983 -548.44004578 213.33951965 -548.02279663 212.83828735 C-540.72701602 204.0852278 -533.07146263 195.81597882 -524.98608398 187.7878418 C-523.17778392 185.99034195 -521.38054023 184.18227684 -519.58398438 182.37304688 C-513.51856606 176.30105282 -507.3916078 170.54774642 -500.64233398 165.23339844 C-498.12132191 163.20917933 -495.74699549 161.07105705 -493.375 158.875 C-489.46437248 155.3164547 -485.42475606 151.98967062 -481.25 148.75 C-480.68555176 148.30793213 -480.12110352 147.86586426 -479.53955078 147.41040039 C-475.49409359 144.3125 -475.49409359 144.3125 -473.25 144.3125 C-473.25 143.6525 -473.25 142.9925 -473.25 142.3125 C-467.83823529 138.3125 -467.83823529 138.3125 -465.25 138.3125 C-464.92 137.3225 -464.59 136.3325 -464.25 135.3125 C-461.59765625 133.26953125 -461.59765625 133.26953125 -458.3125 131.125 C-457.23097656 130.40957031 -456.14945313 129.69414062 -455.03515625 128.95703125 C-452.25 127.3125 -452.25 127.3125 -450.25 127.3125 C-450.25 126.6525 -450.25 125.9925 -450.25 125.3125 C-448.25279344 123.95199689 -446.27140602 122.71386535 -444.1875 121.5 C-438.78116044 118.28440926 -438.78116044 118.28440926 -433.625 114.6875 C-430.19690333 112.17411182 -426.53606641 110.2356511 -422.7890625 108.23828125 C-418.13767793 105.73570922 -413.57759705 103.07168902 -409 100.4375 C-398.55719097 94.44318869 -388.02417359 88.69267141 -377.25 83.3125 C-375.54070312 82.42304688 -375.54070312 82.42304688 -373.796875 81.515625 C-365.87037951 77.41842011 -357.89311324 73.88966463 -349.54199219 70.74707031 C-345.66085211 69.27839442 -341.92683747 67.75200018 -338.25 65.8125 C-331.5331113 62.27913667 -324.3547861 59.78361274 -317.27197266 57.09082031 C-314.80980896 56.14305674 -312.37357462 55.13770532 -309.9375 54.125 C-305.1966105 52.20567795 -300.3350614 50.76432977 -295.42578125 49.33984375 C-292.17499365 48.34447212 -292.17499365 48.34447212 -288.86328125 46.84375 C-284.99911459 45.20617883 -281.15669346 44.01144429 -277.125 42.875 C-275.61047003 42.43952155 -274.09614856 42.00331733 -272.58203125 41.56640625 C-271.84291504 41.35387207 -271.10379883 41.14133789 -270.34228516 40.92236328 C-267.48704306 40.09011185 -264.65003096 39.20305927 -261.8125 38.3125 C-256.49463409 36.67416757 -251.16210989 35.09358592 -245.8125 33.5625 C-244.67566772 33.22798828 -244.67566772 33.22798828 -243.51586914 32.88671875 C-239.31001329 31.69905116 -235.66783045 31.06045262 -231.25 31.3125 C-231.25 30.6525 -231.25 29.9925 -231.25 29.3125 C-229.83460938 29.03986328 -229.83460938 29.03986328 -228.390625 28.76171875 C-227.10671875 28.51035156 -225.8228125 28.25898437 -224.5 28 C-223.24703125 27.75636719 -221.9940625 27.51273438 -220.703125 27.26171875 C-216.24144062 26.34631579 -211.83707431 25.2260317 -207.42236328 24.10864258 C-165.65474992 13.62655953 -165.65474992 13.62655953 -151.25 14.3125 C-151.25 13.6525 -151.25 12.9925 -151.25 12.3125 C-145.20170514 11.41645632 -139.3605424 11.19980557 -133.25 11.3125 C-133.25 10.6525 -133.25 9.9925 -133.25 9.3125 C-84.02479407 4.02082584 -84.02479407 4.02082584 -65.9440918 2.85791016 C-64.99058838 2.79651855 -64.03708496 2.73512695 -63.0546875 2.671875 C-62.26046387 2.62514648 -61.46624023 2.57841797 -60.64794922 2.53027344 C-58.17708693 2.3394929 -58.17708693 2.3394929 -55.47216797 1.82397461 C-37.35960036 -1.05114504 -18.30867427 0.02781706 0 0 Z " fill="#1467B3" transform="translate(959.25,51.6875)"/>
<path d="M0 0 C3.7917192 3.6127996 6.69963047 7.08897138 8.58984375 12.05078125 C8.58984375 12.71078125 8.58984375 13.37078125 8.58984375 14.05078125 C9.24984375 14.05078125 9.90984375 14.05078125 10.58984375 14.05078125 C11.23878612 16.11230514 11.88387015 18.17504383 12.52734375 20.23828125 C13.06681641 21.96111328 13.06681641 21.96111328 13.6171875 23.71875 C19.9170598 45.30024026 14.25472255 68.67475909 9.58984375 90.05078125 C9.23019531 91.70231201 9.23019531 91.70231201 8.86328125 93.38720703 C8.01230924 97.27465746 7.15850394 101.16134502 6.28564453 105.04394531 C4.23351224 114.30804952 2.85614659 123.65131382 1.58984375 133.05078125 C0.92984375 133.05078125 0.26984375 133.05078125 -0.41015625 133.05078125 C-0.384375 134.22125 -0.35859375 135.39171875 -0.33203125 136.59765625 C-0.33556443 140.62194883 -0.8692631 144.34631551 -1.66015625 148.30078125 C-1.79220459 148.97117432 -1.92425293 149.64156738 -2.06030273 150.33227539 C-2.34847899 151.78941532 -2.64019261 153.24585921 -2.93505859 154.70166016 C-3.44150368 157.20577869 -3.9363535 159.712017 -4.4296875 162.21875 C-8.71700203 183.91080506 -8.71700203 183.91080506 -10.91015625 191.30078125 C-12.3717917 196.53035129 -13.18177601 201.75500372 -13.9453125 207.125 C-14.48706035 210.53482467 -15.44632582 213.73761414 -16.41015625 217.05078125 C-17.1474089 221.04002505 -17.79133484 225.04160848 -18.41015625 229.05078125 C-19.07015625 229.05078125 -19.73015625 229.05078125 -20.41015625 229.05078125 C-20.37208862 229.96283325 -20.37208862 229.96283325 -20.33325195 230.89331055 C-20.18423005 237.23191172 -20.99624646 242.74891471 -22.59765625 248.86328125 C-23.054906 250.69525798 -23.51193031 252.52729099 -23.96875 254.359375 C-24.20577637 255.29249512 -24.44280273 256.22561523 -24.68701172 257.18701172 C-25.88318624 261.92405666 -27.02218898 266.67448329 -28.16015625 271.42578125 C-28.37051514 272.2866333 -28.58087402 273.14748535 -28.79760742 274.03442383 C-29.66781596 277.64587826 -30.42415287 281.15363522 -30.92578125 284.83984375 C-31.38790005 287.90324419 -32.19286951 290.22278811 -33.41015625 293.05078125 C-36.3573356 302.84899531 -37.83001522 312.96477469 -39.41015625 323.05078125 C-40.07015625 323.05078125 -40.73015625 323.05078125 -41.41015625 323.05078125 C-41.47819458 323.95630737 -41.47819458 323.95630737 -41.54760742 324.88012695 C-42.08871655 331.1692329 -43.19535451 337.11988752 -44.72265625 343.23828125 C-44.9434082 344.14449219 -45.16416016 345.05070312 -45.39160156 345.984375 C-47.03689854 352.68866428 -48.78428227 359.3631743 -50.61328125 366.01953125 C-51.31454926 368.68709975 -51.90446812 371.34029288 -52.41015625 374.05078125 C-53.07015625 374.05078125 -53.73015625 374.05078125 -54.41015625 374.05078125 C-54.34828125 375.59765625 -54.34828125 375.59765625 -54.28515625 377.17578125 C-54.40881039 381.00905961 -55.18458752 383.45735266 -56.41015625 387.05078125 C-56.89595114 389.19159217 -57.3515205 391.33942169 -57.78125 393.4921875 C-59.36880772 401.08472468 -61.37170681 408.52386903 -63.47265625 415.98828125 C-63.99956055 417.88030273 -63.99956055 417.88030273 -64.53710938 419.81054688 C-65.8223614 424.4194752 -67.11480204 429.02583141 -68.43969727 433.62353516 C-69.26770269 436.54769618 -70.04452796 439.47279844 -70.77734375 442.421875 C-71.02105713 443.4001123 -71.26477051 444.37834961 -71.51586914 445.38623047 C-71.76973389 446.40990723 -72.02359863 447.43358398 -72.28515625 448.48828125 C-72.55126709 449.55578613 -72.81737793 450.62329102 -73.09155273 451.72314453 C-74.2394821 456.32944988 -75.38360324 460.93663368 -76.515625 465.546875 C-78.95595196 475.43766957 -81.64160053 485.24737082 -84.41015625 495.05078125 C-92.03197519 494.60763086 -98.97006677 493.32314544 -106.28515625 491.17578125 C-108.21560098 490.62828356 -110.14658952 490.08269957 -112.078125 489.5390625 C-112.9964209 489.27947754 -113.9147168 489.01989258 -114.86083984 488.75244141 C-119.07308517 487.59308562 -123.32141017 486.64689149 -127.5859375 485.69921875 C-132.2347413 484.63185854 -136.82192574 483.35100681 -141.41015625 482.05078125 C-142.95509766 481.61378906 -142.95509766 481.61378906 -144.53125 481.16796875 C-170.49284791 473.72878321 -170.49284791 473.72878321 -180.91796875 469.10546875 C-184.97403683 467.38895091 -189.18136445 466.25801059 -193.41015625 465.05078125 C-198.69281264 463.43016971 -203.68927432 461.51805301 -208.70703125 459.2109375 C-212.16269039 457.72780056 -215.6902549 456.46108058 -219.22265625 455.17578125 C-225.16074818 453.00158982 -230.78486938 450.53016426 -236.37109375 447.54296875 C-238.93026341 446.28640987 -241.45472097 445.21830435 -244.10546875 444.1796875 C-249.49297074 442.05882931 -254.69680027 439.62755116 -259.91015625 437.11328125 C-260.78285156 436.69626953 -261.65554688 436.27925781 -262.5546875 435.84960938 C-268.53937063 432.98139457 -274.48150074 430.03280061 -280.41015625 427.05078125 C-281.74331877 426.38377306 -283.07659491 425.7169917 -284.41015625 425.05078125 C-284.41015625 424.39078125 -284.41015625 423.73078125 -284.41015625 423.05078125 C-285.3640625 422.83164062 -286.31796875 422.6125 -287.30078125 422.38671875 C-292.34161871 420.93817318 -296.6583468 418.31272835 -301.16015625 415.67578125 C-302.52974487 414.88264526 -302.52974487 414.88264526 -303.92700195 414.07348633 C-315.99622876 407.0318029 -327.93501271 399.69833664 -339.296875 391.5546875 C-341.44963724 390.0226848 -343.63922223 388.56365386 -345.84765625 387.11328125 C-350.08023687 384.30633424 -354.19007873 381.35247766 -358.28125 378.34375 C-360.6590358 376.60122782 -363.04664348 374.87739751 -365.4453125 373.1640625 C-366.82947244 372.16803178 -368.21358734 371.17193847 -369.59765625 370.17578125 C-370.27006348 369.69923096 -370.9424707 369.22268066 -371.63525391 368.73168945 C-373.2633989 367.55359908 -374.84211107 366.30775674 -376.41015625 365.05078125 C-376.41015625 364.39078125 -376.41015625 363.73078125 -376.41015625 363.05078125 C-376.95027344 362.81875 -377.49039063 362.58671875 -378.046875 362.34765625 C-381.08291487 360.68159801 -383.60817848 358.54648424 -386.22265625 356.30078125 C-386.78960205 355.81617432 -387.35654785 355.33156738 -387.94067383 354.83227539 C-398.33293464 345.87176787 -408.18913346 336.35488157 -417.91015625 326.67578125 C-418.65160889 325.93900146 -419.39306152 325.20222168 -420.15698242 324.44311523 C-424.77864866 319.80786355 -429.15910589 315.02682703 -433.41015625 310.05078125 C-434.11833496 309.23311279 -434.11833496 309.23311279 -434.84082031 308.39892578 C-447.73362488 293.50422029 -458.62512 277.51780671 -469.41015625 261.05078125 C-469.85842773 260.37305664 -470.30669922 259.69533203 -470.76855469 258.99707031 C-476.11250104 250.89139458 -480.25301856 242.36637697 -484.30859375 233.5703125 C-486.00522189 229.89072159 -487.8003212 226.27623115 -489.66015625 222.67578125 C-500.04944376 202.06940436 -505.75391325 178.98820889 -509.95458984 156.41015625 C-510.25912427 154.83297475 -510.58514858 153.2597963 -510.93212891 151.69140625 C-513.6793262 139.10959778 -513.6142158 126.30453976 -513.59765625 113.48828125 C-513.59738434 112.69497406 -513.59711243 111.90166687 -513.59683228 111.08432007 C-513.57777477 98.97731646 -513.23821124 87.04011375 -511.41015625 75.05078125 C-511.29236816 74.2717041 -511.17458008 73.49262695 -511.05322266 72.68994141 C-509.95310814 65.61900929 -508.68103082 58.85456888 -506.41015625 52.05078125 C-505.85481159 49.46803003 -505.32957906 46.89653479 -504.84765625 44.30078125 C-503.53918232 37.3088334 -503.53918232 37.3088334 -502.41015625 35.05078125 C-499.8203125 34.48828125 -499.8203125 34.48828125 -496.47265625 34.05078125 C-491.74046037 33.41906976 -487.09803406 32.60384182 -482.42407227 31.6484375 C-478.80023212 30.92983396 -475.16705207 30.26792478 -471.53125 29.61328125 C-470.47726768 29.42318481 -470.47726768 29.42318481 -469.4019928 29.22924805 C-466.48122958 28.70312185 -463.56022216 28.17837678 -460.63891602 27.65527344 C-453.54717503 26.38407512 -446.47434375 25.10527609 -439.45239258 23.484375 C-435.51153203 22.64767825 -431.52220234 22.1166796 -427.53515625 21.55078125 C-419.38734854 20.35903682 -411.28074821 19.09661388 -403.2265625 17.3671875 C-394.5205692 15.52681871 -385.8419277 14.2757473 -377.01586914 13.17382812 C-370.67697612 12.37323501 -364.4042016 11.4091138 -358.12255859 10.24829102 C-348.32390567 8.45415511 -338.46336811 7.02894788 -328.61499023 5.53808594 C-325.28147142 5.03121433 -321.94931628 4.51592393 -318.6171875 4 C-307.18860159 2.24261286 -296.01022176 0.65532447 -284.41015625 1.05078125 C-284.41015625 0.39078125 -284.41015625 -0.26921875 -284.41015625 -0.94921875 C-283.50523437 -0.975 -282.6003125 -1.00078125 -281.66796875 -1.02734375 C-271.13587011 -1.43180837 -260.73816989 -2.58549913 -250.28515625 -3.88671875 C-237.44584545 -5.48130738 -224.65297814 -6.60507686 -211.73193359 -7.26538086 C-204.91034647 -7.62242486 -198.15577205 -8.16871767 -191.37109375 -8.9375 C-180.59248293 -10.14122396 -169.80543039 -10.58793597 -158.97265625 -11.01171875 C-155.16131544 -11.16594227 -151.3501413 -11.32381168 -147.5390625 -11.484375 C-146.6317186 -11.52217072 -145.72437469 -11.55996643 -144.78953552 -11.59890747 C-140.22634186 -11.7969617 -135.68602031 -12.05660309 -131.13671875 -12.4765625 C-123.51626218 -13.17636572 -115.86924711 -13.27263836 -108.22265625 -13.44921875 C-99.35233515 -13.65651904 -90.50040995 -13.9065008 -81.64453125 -14.46875 C-55.20532978 -16.13440646 -22.01055578 -17.80108158 0 0 Z " fill="#1467B3" transform="translate(847.41015625,348.94921875)"/>
<path d="M0 0 C1.65418945 -0.00580078 1.65418945 -0.00580078 3.34179688 -0.01171875 C4.43427734 -0.01042969 5.52675781 -0.00914062 6.65234375 -0.0078125 C7.62034912 -0.00668457 8.58835449 -0.00555664 9.58569336 -0.00439453 C12.51156516 0.10449614 15.37061176 0.33118711 18.2824707 0.61572266 C23.84425807 1.14361013 29.36912203 1.32451573 34.953125 1.40625 C35.94197693 1.42465942 36.93082886 1.44306885 37.949646 1.46203613 C42.12811775 1.53979895 46.30672411 1.60843829 50.48535156 1.67724609 C53.55801725 1.72920398 56.63055737 1.78632588 59.703125 1.84375 C60.63868225 1.85732544 61.5742395 1.87090088 62.53814697 1.8848877 C67.47563434 1.97816446 72.17016561 2.410299 77.0625 3.125 C80.85735912 3.39907761 84.65636993 3.56578607 88.45703125 3.73828125 C90.77280784 3.85030757 93.08856214 3.96279534 95.40429688 4.07568359 C96.62109131 4.13423523 97.83788574 4.19278687 99.09155273 4.25311279 C137.12521695 6.10669251 175.01104225 8.72810065 212.78681946 13.58251953 C213.59837997 13.68677246 214.40994049 13.79102539 215.24609375 13.8984375 C216.05237717 14.0020459 216.85866058 14.1056543 217.68937683 14.21240234 C228.39803522 15.571544 239.13965366 16.63741037 249.88183594 17.69335938 C261.00474001 18.80384128 272.02193353 20.38504144 283.0625 22.125 C284.05212738 22.27980835 285.04175476 22.4346167 286.06137085 22.59411621 C292.52241111 23.60494529 298.98142548 24.62800229 305.43920898 25.65942383 C308.78392761 26.1929115 312.1292606 26.72243318 315.47460938 27.25195312 C317.63285119 27.59611166 319.79105571 27.94050408 321.94921875 28.28515625 C323.42596321 28.518041 323.42596321 28.518041 324.93254089 28.75563049 C330.02848462 29.57426645 335.05110474 30.53480823 340.08085632 31.69084167 C342.69699009 32.26401044 345.3161775 32.64260517 347.97265625 32.9765625 C348.98134766 33.10546875 349.99003906 33.234375 351.02929688 33.3671875 C352.05087891 33.49351562 353.07246094 33.61984375 354.125 33.75 C355.70958008 33.95109375 355.70958008 33.95109375 357.32617188 34.15625 C359.90449999 34.48291601 362.48324474 34.80575198 365.0625 35.125 C365.0625 35.785 365.0625 36.445 365.0625 37.125 C365.9596875 37.16455811 366.856875 37.20411621 367.78125 37.24487305 C376.69502687 37.72658994 385.28382611 38.8355632 394.04199219 40.54418945 C396.05991723 40.93699724 398.08030813 41.31419605 400.1015625 41.68945312 C409.22056597 43.41236319 418.11878072 45.65219225 427.0625 48.125 C429.7251154 48.81019477 432.39202937 49.47100719 435.0625 50.125 C435.18367188 50.70507812 435.30484375 51.28515625 435.4296875 51.8828125 C436.40163667 56.41359095 437.56781897 60.73437446 439.0625 65.125 C440.9115982 71.28866066 441.29940509 76.7022398 441.0625 83.125 C441.7225 83.125 442.3825 83.125 443.0625 83.125 C451.18424767 154.88150466 451.18424767 154.88150466 442.0625 173.125 C441.81158917 174.85114556 441.58769238 176.58122975 441.375 178.3125 C439.85130541 188.77756519 436.83857832 198.9360352 434.0625 209.125 C433.4025 209.125 432.7425 209.125 432.0625 209.125 C432.000625 210.176875 431.93875 211.22875 431.875 212.3125 C431.12808259 218.59339638 428.45941228 224.32288023 426.0625 230.125 C425.4025 230.125 424.7425 230.125 424.0625 230.125 C423.98 231.115 423.8975 232.105 423.8125 233.125 C423.15256454 237.65414607 421.20587789 241.13176413 419.0625 245.125 C418.122451 247.04041777 417.18515265 248.95718695 416.25 250.875 C413.4469175 256.46725391 410.40516178 261.86814746 407.19042969 267.23291016 C405.84735284 269.48590703 404.52202048 271.74904555 403.1953125 274.01171875 C402.15150308 275.77891845 401.10723 277.54584437 400.0625 279.3125 C399.5763623 280.14394531 399.09022461 280.97539063 398.58935547 281.83203125 C395.58541771 286.88032945 392.31539253 291.52354248 388.65087891 296.11401367 C386.08576254 299.36161028 383.83332498 302.81051026 381.54296875 306.25390625 C381.05441406 306.87136719 380.56585937 307.48882813 380.0625 308.125 C379.4025 308.125 378.7425 308.125 378.0625 308.125 C377.4025 309.775 376.7425 311.425 376.0625 313.125 C375.4025 313.125 374.7425 313.125 374.0625 313.125 C373.80726563 313.68832031 373.55203125 314.25164062 373.2890625 314.83203125 C364.65378419 330.97505152 347.14925411 346.27622454 333.37109375 358.09375 C331.06107206 360.12625639 328.81933739 362.22266122 326.58007812 364.33251953 C320.01377131 370.49867982 313.17658593 376.13827676 306.02685547 381.61083984 C303.87085861 383.2727206 301.73346008 384.95678539 299.59765625 386.64453125 C291.29367457 393.19198541 282.96197563 399.40570422 274.0625 405.125 C272.1864341 406.39425927 270.31146895 407.66514677 268.4375 408.9375 C261.18083799 413.77527467 253.7273268 418.28415083 246.26269531 422.79199219 C244.25020868 424.01127503 242.24503133 425.24152821 240.2421875 426.4765625 C231.20302341 432.02119813 221.90944341 436.98322701 212.49316406 441.85449219 C210.10541565 443.102568 207.73459517 444.37787992 205.3671875 445.6640625 C194.69164029 451.43954135 183.81999562 456.37481246 172.62158203 461.04589844 C168.536278 462.76857005 164.48599802 464.56786422 160.4375 466.375 C159.6964502 466.70467773 158.95540039 467.03435547 158.19189453 467.37402344 C154.06873449 469.21296962 149.96831713 471.09535448 145.875 473 C141.99240515 474.77389356 138.18333221 475.9882187 134.0625 477.125 C132.28610802 477.79800704 130.51618267 478.48813908 128.75 479.1875 C86.71753145 495.57138565 86.71753145 495.57138565 76.0625 495.125 C76.0625 495.785 76.0625 496.445 76.0625 497.125 C75.19367188 497.31835938 74.32484375 497.51171875 73.4296875 497.7109375 C72.27726562 497.97132813 71.12484375 498.23171875 69.9375 498.5 C68.23207031 498.88285156 68.23207031 498.88285156 66.4921875 499.2734375 C63.27676905 500.0717988 60.19991335 501.06773468 57.0625 502.125 C55.56833867 502.48359872 54.06840593 502.81945387 52.5625 503.125 C48.95617252 503.89907029 45.55105971 504.91468337 42.0625 506.125 C40.39995301 506.67918233 38.73284109 507.2197725 37.0625 507.75 C36.258125 508.01039063 35.45375 508.27078125 34.625 508.5390625 C31.70674103 509.20634733 29.04636739 509.22041436 26.0625 509.125 C25.38701422 507.06537148 24.72245688 505.00215678 24.0625 502.9375 C23.69125 501.78894531 23.32 500.64039063 22.9375 499.45703125 C22.15619447 496.48179188 21.87886694 494.17216104 22.0625 491.125 C21.4025 491.125 20.7425 491.125 20.0625 491.125 C19.77117187 489.86429688 19.47984375 488.60359375 19.1796875 487.3046875 C13.71246771 463.77987926 13.71246771 463.77987926 6.5 440.75 C3.92345145 433.30113209 2.41699412 425.71175741 0.87353516 417.99145508 C-1.65524494 404.65969715 -1.65524494 404.65969715 -5.91015625 391.8203125 C-7.41522531 387.87165224 -8.25363352 383.80326152 -9.1875 379.6875 C-10.94579445 372.08903753 -12.88654887 364.56949444 -15 357.0625 C-17.19804492 349.21372593 -18.96324359 341.3721081 -20.47338867 333.36499023 C-21.50003495 328.02632423 -22.78372859 322.84056157 -24.3125 317.625 C-27.59148293 306.401627 -29.82796229 294.94650612 -32.2121582 283.50732422 C-33.17217063 279.03071292 -34.21708219 274.57583966 -35.27856445 270.12231445 C-36.17728582 266.03428101 -36.81285128 261.92256445 -37.41015625 257.78125 C-37.8415141 255.11962681 -37.8415141 255.11962681 -38.95703125 252.76953125 C-40.23657469 249.3183324 -40.39537381 245.95097635 -40.5625 242.3125 C-40.62050781 241.27319336 -40.62050781 241.27319336 -40.6796875 240.21289062 C-40.77323568 238.51732985 -40.85642364 236.82120288 -40.9375 235.125 C-41.5975 235.125 -42.2575 235.125 -42.9375 235.125 C-43.11925781 233.90425781 -43.30101562 232.68351563 -43.48828125 231.42578125 C-43.74192869 229.76298133 -43.99584992 228.10022317 -44.25 226.4375 C-44.36794922 225.64021484 -44.48589844 224.84292969 -44.60742188 224.02148438 C-45.51713916 218.11998505 -46.76391426 212.34215061 -48.13696289 206.53198242 C-49.49664065 200.74536971 -50.74622926 194.93531351 -52 189.125 C-52.25587891 187.95710937 -52.51175781 186.78921875 -52.77539062 185.5859375 C-57.11864421 165.44395944 -57.11864421 165.44395944 -56.9375 156.125 C-57.5975 156.125 -58.2575 156.125 -58.9375 156.125 C-59.06596313 155.22406616 -59.06596313 155.22406616 -59.19702148 154.30493164 C-59.58538015 151.59848342 -59.98010329 148.89300164 -60.375 146.1875 C-60.50970703 145.24197266 -60.64441406 144.29644531 -60.78320312 143.32226562 C-60.91533203 142.42314453 -61.04746094 141.52402344 -61.18359375 140.59765625 C-61.30404053 139.76500244 -61.4244873 138.93234863 -61.54858398 138.07446289 C-61.74933994 136.12812641 -61.74933994 136.12812641 -62.9375 135.125 C-63.23542936 133.70252411 -63.4788404 132.2685663 -63.69921875 130.83203125 C-63.84576904 129.90583984 -63.99231934 128.97964844 -64.14331055 128.02539062 C-64.30226807 127.00638672 -64.46122559 125.98738281 -64.625 124.9375 C-66.43495369 113.65404286 -68.60867354 102.4696917 -70.91870117 91.28051758 C-73.12881536 80.49783926 -74.14068812 70.39919752 -74.1875 59.375 C-74.208125 58.17617188 -74.22875 56.97734375 -74.25 55.7421875 C-74.31667908 40.37265985 -70.24839029 26.61690678 -59.5 15.2578125 C-43.15150817 1.65068363 -20.36450547 -0.07116309 0 0 Z " fill="#1467B3" transform="translate(1145.9375,333.875)"/>
<path d="M0 0 C1.00804687 0.29519531 2.01609375 0.59039063 3.0546875 0.89453125 C22.3666192 7.18027079 36.31592247 18.20575471 45.875 36.4609375 C55.52422913 58.23871159 56.50247928 84.66668843 48 107 C40.25349103 126.11426736 28.02805157 139.48062237 9 148 C-12.64391619 155.69665123 -35.89398497 155.0592028 -57 146 C-69.50102675 139.58586062 -78.02196451 130.01045251 -85 118 C-86.0828125 116.3603125 -86.0828125 116.3603125 -87.1875 114.6875 C-93.63834795 103.23168381 -94.18106592 89.64020784 -94.1875 76.875 C-94.19974609 75.61945313 -94.21199219 74.36390625 -94.22460938 73.0703125 C-94.2567342 52.42475713 -88.24795569 34.42076423 -74.0625 18.96875 C-54.62351629 0.41335646 -26.14243721 -7.80914345 0 0 Z " fill="#1568B3" transform="translate(1438,995)"/>
<path d="M0 0 C17.16750648 11.96341915 27.42035066 28.08546994 31.20507812 48.6184082 C31.87882702 53.69683652 31.9011068 58.75882435 31.875 63.875 C31.86762817 65.58647217 31.86762817 65.58647217 31.86010742 67.33251953 C31.66913915 81.21346447 29.89078149 93.77730133 23.5625 106.3125 C23.08167969 107.29605469 22.60085938 108.27960938 22.10546875 109.29296875 C13.50073754 125.47656298 0.47541211 134.14231708 -16.4375 140.3125 C-17.18773437 140.60125 -17.93796875 140.89 -18.7109375 141.1875 C-37.40130522 148.00784471 -60.45977005 145.09728365 -78.1796875 137.0703125 C-94.06945782 129.10292058 -105.25515406 114.99980102 -110.8203125 98.265625 C-112.09166697 94.29924991 -113.28857962 90.31604563 -114.4375 86.3125 C-114.61925781 85.70374023 -114.80101562 85.09498047 -114.98828125 84.46777344 C-119.44841854 63.06881041 -114.63318698 39.07509741 -103.1640625 20.75390625 C-91.57221365 4.36271727 -77.40784707 -4.43191819 -58.4375 -9.6875 C-57.81375488 -9.86780762 -57.19000977 -10.04811523 -56.54736328 -10.23388672 C-37.81174354 -14.26197992 -16.0704864 -10.12775445 0 0 Z " fill="#1568B3" transform="translate(1183.4375,1003.6875)"/>
<path d="M0 0 C1.22355698 0.00222061 2.44711395 0.00444122 3.70774841 0.00672913 C4.38089081 0.0065831 5.0540332 0.00643707 5.74757385 0.00628662 C7.98229649 0.00698573 10.21693674 0.01477799 12.4516449 0.02259827 C13.99721226 0.02446245 15.54278022 0.02588635 17.08834839 0.02688599 C21.16380941 0.03071112 25.23923502 0.04054135 29.31468201 0.05158997 C33.47035747 0.0618042 37.62603864 0.06638363 41.78172302 0.07142639 C49.94124452 0.08216363 58.10073718 0.09923998 66.26023865 0.12025452 C73.62903042 16.75003038 73.62903042 16.75003038 76.38523865 24.43275452 C78.40012509 29.95308389 80.63102919 35.31219884 83.11961365 40.63587952 C84.56354822 43.78088769 85.83371677 46.97863208 87.1000824 50.19837952 C88.60056386 53.97736985 90.14795682 57.73626245 91.69773865 61.49525452 C91.97408142 62.16637268 92.25042419 62.83749084 92.53514099 63.52894592 C94.6651648 68.69483748 96.81361703 73.85298646 98.96409607 79.01039124 C100.21962248 82.02280325 101.47272913 85.03620964 102.7250824 88.04994202 C108.12473284 101.04599878 108.12473284 101.04599878 113.63523865 113.99525452 C116.40053913 120.41663856 119.02902247 126.8767694 121.51023865 133.41322327 C121.94336365 134.55404358 122.37648865 135.69486389 122.82273865 136.87025452 C123.21590271 137.91697327 123.60906677 138.96369202 124.0141449 140.04212952 C125.23191043 143.18518493 125.23191043 143.18518493 126.9125824 146.32337952 C128.26023865 149.12025452 128.26023865 149.12025452 128.26023865 152.12025452 C107.47023865 152.12025452 86.68023865 152.12025452 65.26023865 152.12025452 C60.76590758 143.13159239 60.76590758 143.13159239 59.6547699 139.80775452 C59.39832703 139.05518372 59.14188416 138.30261292 58.87767029 137.52723694 C58.61204285 136.73293274 58.34641541 135.93862854 58.07273865 135.12025452 C55.45506587 127.46278877 52.69406801 119.87365513 49.82273865 112.30775452 C46.75173763 104.20475972 43.82099067 96.0671076 41.01023865 87.87025452 C38.3640247 80.15456806 35.5931819 72.57130553 32.26023865 65.12025452 C31.60023865 65.12025452 30.94023865 65.12025452 30.26023865 65.12025452 C29.2167117 68.07794331 28.1750077 71.03624396 27.13523865 73.99525452 C26.8190155 74.89477844 26.50279236 75.79430237 26.17698669 76.72108459 C24.07371131 82.72871299 22.05136735 88.75812458 20.07273865 94.80775452 C18.34853528 100.0667159 16.49224968 105.12415541 14.11961365 110.13197327 C13.15494635 112.36386262 12.48571583 114.59391836 11.82273865 116.93275452 C10.74168748 120.73993473 9.39102033 124.29893111 7.82273865 127.93275452 C5.54678808 133.22963647 3.82251725 138.56849202 2.25242615 144.11244202 C1.26023865 147.12025452 1.26023865 147.12025452 -1.73976135 153.12025452 C-22.52976135 153.12025452 -43.31976135 153.12025452 -64.73976135 153.12025452 C-62.82443367 147.37427148 -60.9175153 142.01650915 -58.42726135 136.55775452 C-56.04984439 131.24202027 -53.85484635 125.90496802 -51.86476135 120.43275452 C-49.54235321 114.06101936 -46.94386744 107.8390823 -44.23976135 101.62025452 C-40.97977346 94.11599105 -37.95665357 86.57307368 -35.13819885 78.89369202 C-32.11485191 70.66797092 -28.76422348 62.56562992 -25.38819885 54.47962952 C-22.7007427 48.04016953 -20.05838313 41.58290626 -17.42726135 35.12025452 C-16.95304749 33.95703674 -16.47883362 32.79381897 -15.99024963 31.59535217 C-12.65289917 23.39754249 -9.35183935 15.185866 -6.11354065 6.94837952 C-3.42089486 0.15015106 -3.42089486 0.15015106 0 0 Z " fill="#1467B3" transform="translate(688.7397613525391,993.8797454833984)"/>
<path d="M0 0 C0.65856995 -0.0065712 1.31713989 -0.0131424 1.9956665 -0.01991272 C4.18347271 -0.03968598 6.37121018 -0.05131681 8.55908203 -0.0612793 C9.30463474 -0.06535482 10.05018745 -0.06943035 10.81833267 -0.07362938 C14.7639768 -0.09450683 18.70958597 -0.10880151 22.65527344 -0.11816406 C26.73676637 -0.1292352 30.81771508 -0.16363767 34.89901543 -0.20333576 C38.03196242 -0.2294457 41.16477863 -0.23785081 44.29782486 -0.24144554 C45.80256961 -0.24632576 47.30730797 -0.25798048 48.81194687 -0.27648354 C50.91673993 -0.30075875 53.02011066 -0.29993254 55.125 -0.29296875 C56.92250198 -0.30176811 56.92250198 -0.30176811 58.75631714 -0.31074524 C61.69189453 0.17700195 61.69189453 0.17700195 63.54031372 2.0716095 C64.72735356 4.24183037 65.69479926 6.36170477 66.56689453 8.67700195 C67.94978086 12.29674824 69.38777041 15.88529035 70.88720703 19.45825195 C72.96210506 24.4209261 75.02035742 29.39008943 77.06689453 34.36450195 C77.36153595 35.08053589 77.65617737 35.79656982 77.95974731 36.53430176 C79.17612145 39.49091666 80.39200273 42.44773415 81.60791016 45.40454102 C84.8949441 53.39689015 88.18718946 61.3867534 91.51660156 69.36157227 C92.73296166 72.2753788 93.94523233 75.19086158 95.15673828 78.10668945 C101.17166845 92.5767416 101.17166845 92.5767416 107.34033203 106.98168945 C108.43916765 109.57951469 109.49792363 112.18499776 110.53955078 114.8059082 C112.04306428 118.58309653 113.58812917 122.33980667 115.16455078 126.0871582 C115.58929688 127.09713867 116.01404297 128.10711914 116.45166016 129.14770508 C117.32213681 131.21361894 118.19454214 133.27872119 119.06884766 135.34301758 C119.7040332 136.85605469 119.7040332 136.85605469 120.35205078 138.3996582 C120.9187146 139.74169312 120.9187146 139.74169312 121.49682617 141.11083984 C123.04319983 145.07833868 124.34533155 149.13731302 125.69189453 153.17700195 C104.57189453 153.17700195 83.45189453 153.17700195 61.69189453 153.17700195 C57.11868297 141.1723216 52.58709959 129.27164011 48.49658203 117.1184082 C46.77718019 112.0809871 44.87229769 107.23735115 42.66064453 102.3972168 C40.98257899 98.551368 39.66452723 94.58556294 38.31689453 90.61450195 C35.26161637 81.7412739 32.03512841 72.94533697 28.69189453 64.17700195 C23.32461513 75.94372987 18.72141241 87.92030647 14.5090332 100.13916016 C11.86288485 107.78015601 9.03606316 115.34736624 6.15161133 122.90136719 C2.46978521 132.60210442 -0.87507416 142.36834107 -4.30810547 152.17700195 C-25.09810547 152.17700195 -45.88810547 152.17700195 -67.30810547 152.17700195 C-66.33148364 148.27051462 -65.03600821 144.59320057 -63.61279297 140.8371582 C-63.21179886 139.77429344 -63.21179886 139.77429344 -62.80270386 138.68995667 C-60.12126463 131.62075701 -57.29663595 124.61166912 -54.43310547 117.61450195 C-53.87933743 116.25689242 -53.32571227 114.89922459 -52.7722168 113.54150391 C-51.27497309 109.87116137 -49.77433727 106.2022154 -48.27264404 102.53369141 C-47.27362983 100.09276646 -46.27541941 97.65151393 -45.27734375 95.21020508 C-43.18543919 90.09414749 -41.09089244 84.97917504 -38.99560547 79.86450195 C-38.66957336 79.06809296 -38.34354126 78.27168396 -38.00762939 77.45114136 C-34.07443241 67.84688378 -30.10405438 58.26030324 -26.03605652 48.71220398 C-23.95639358 43.80729793 -22.0191267 38.86552948 -20.18310547 33.86450195 C-17.88919947 27.6277601 -15.35622853 21.54944502 -12.69482422 15.45825195 C-10.98885176 11.42158472 -9.50235245 7.32915039 -8.06982422 3.1887207 C-6.51177269 -0.92613335 -4.12934004 0.03396725 0 0 Z " fill="#1567B3" transform="translate(372.30810546875,993.822998046875)"/>
<path d="M0 0 C15.51 0 31.02 0 47 0 C48.81935309 4.85160824 50.32363807 9.03174904 51.49023438 13.96337891 C52.39863427 17.59262791 53.59501117 21.13069375 54.75 24.6875 C58.06774811 35.06057021 61.0777568 45.50946475 64 56 C64.26345215 56.94407715 64.5269043 57.8881543 64.79833984 58.86083984 C73.26042268 89.27416964 73.26042268 89.27416964 74 102 C74.66 102 75.32 102 76 102 C76.13148438 101.15050781 76.26296875 100.30101562 76.3984375 99.42578125 C82.34604113 65.55533719 95.10720984 32.50546906 106 0 C121.51 0 137.02 0 153 0 C153.103125 4.599375 153.20625 9.19875 153.3125 13.9375 C153.72073897 29.33238584 154.55014371 44.6922671 155.5 60.0625 C155.56571198 61.13579559 155.63142395 62.20909119 155.6991272 63.31491089 C155.88982157 66.40938065 156.08451506 69.50356512 156.28125 72.59765625 C156.33854782 73.51523712 156.39584564 74.43281799 156.45487976 75.37820435 C156.7727776 80.2583886 157.22002999 85.10001438 157.78479004 89.95741272 C158.08505659 92.80728378 158.19757906 95.64799197 158.28125 98.51171875 C158.31806885 99.67485596 158.3548877 100.83799316 158.39282227 102.03637695 C158.44587524 103.84368286 158.44587524 103.84368286 158.5 105.6875 C158.84852941 116.75992731 158.84852941 116.75992731 159.5625 127.8125 C160.06073124 134.85891322 160 141.93599451 160 149 C148.78 149 137.56 149 126 149 C125.87625 144.648125 125.7525 140.29625 125.625 135.8125 C125.36322497 127.00849354 125.04801352 118.21640485 124.48828125 109.42578125 C122.86098802 83.60489945 122.79007821 57.86720903 123 32 C122.34 32 121.68 32 121 32 C121.04125 32.85078125 121.0825 33.7015625 121.125 34.578125 C120.98751514 38.34177304 120.18578433 41.1770446 119 44.75 C118.53391464 46.17928321 118.06916616 47.60900279 117.60546875 49.0390625 C117.34813965 49.82700195 117.09081055 50.61494141 116.82568359 51.42675781 C115.6040079 55.23410902 114.45366916 59.06242342 113.29443359 62.88916016 C109.79350492 74.42603451 106.07246031 85.87736087 102.22613525 97.30236816 C98.82907194 107.40174559 95.65875974 117.54355775 92.66015625 127.76708984 C91.53198871 131.58299974 90.36469959 135.38647324 89.1875 139.1875 C88.98020264 139.86603027 88.77290527 140.54456055 88.55932617 141.24365234 C87.11686415 145.88313585 87.11686415 145.88313585 86 147 C84.00035018 147.08758003 81.9976389 147.10696576 79.99609375 147.09765625 C78.78115234 147.09443359 77.56621094 147.09121094 76.31445312 147.08789062 C75.03505859 147.07951172 73.75566406 147.07113281 72.4375 147.0625 C71.15423828 147.05798828 69.87097656 147.05347656 68.54882812 147.04882812 C65.36583978 147.03699545 62.18294238 147.02051068 59 147 C46.136208 104.91461588 46.136208 104.91461588 41.80859375 87.1640625 C40.99540532 83.98202081 40.11148577 80.82692228 39.21386719 77.66796875 C36.95470491 69.71517559 34.96481916 61.75162527 33.25610352 53.66162109 C32.45995579 49.72227401 32.45995579 49.72227401 31 46 C30.61369961 43.96416877 30.26403216 41.9212682 29.9375 39.875 C29.76089844 38.77929688 29.58429687 37.68359375 29.40234375 36.5546875 C29.20318359 35.29011719 29.20318359 35.29011719 29 34 C27.75366214 49.98287701 26.87787713 65.91026218 26.5625 81.9375 C26.1186295 104.33561687 24.55141406 126.65573456 23 149 C12.44 149 1.88 149 -9 149 C-9.12097637 137.85917616 -8.8517611 126.97159863 -7.83197021 115.88348389 C-7.46768337 111.90834198 -7.13102631 107.93089878 -6.796875 103.953125 C-6.72826263 103.13738007 -6.65965027 102.32163513 -6.58895874 101.48117065 C-5.72407302 90.96358636 -5.18098539 80.42784476 -4.64697266 69.88916016 C-4.57480442 68.47557263 -4.50238284 67.06199802 -4.4296875 65.6484375 C-4.39473175 64.96738449 -4.359776 64.28633148 -4.32376099 63.5846405 C-4.13194939 59.99442774 -3.87216701 56.42421399 -3.5078125 52.84765625 C-2.51153887 42.62769321 -2.3032767 32.3251476 -1.875 22.0690918 C-1.75349421 19.1826173 -1.62701778 16.29639267 -1.5 13.41015625 C-1.44682617 12.0820266 -1.44682617 12.0820266 -1.39257812 10.72706604 C-1.35583984 9.90198044 -1.31910156 9.07689484 -1.28125 8.22680664 C-1.25095703 7.50497696 -1.22066406 6.78314728 -1.18945312 6.03944397 C-1 4 -1 4 0 0 Z " fill="#1568B3" transform="translate(888,996)"/>
<path d="M0 0 C52.14 0 104.28 0 158 0 C158 14.85 158 29.7 158 45 C143.15 45 128.3 45 113 45 C113 80.64 113 116.28 113 153 C91.22 153 69.44 153 47 153 C47 117.36 47 81.72 47 45 C31.49 45 15.98 45 0 45 C0 30.15 0 15.3 0 0 Z " fill="#1668B3" transform="translate(163,994)"/>
<path d="M0 0 C51.81 0 103.62 0 157 0 C157 14.85 157 29.7 157 45 C142.15 45 127.3 45 112 45 C112 80.31 112 115.62 112 152 C90.55 152 69.1 152 47 152 C47 116.36 47 80.72 47 44 C31.49 44 15.98 44 0 44 C0 29.48 0 14.96 0 0 Z " fill="#1367B3" transform="translate(483,994)"/>
<path d="M0 0 C8.18117312 8.89952003 10.57772078 18.96810575 10.3671875 30.83984375 C9.48412445 41.81020398 4.12773102 50.24125562 -4.0234375 57.4765625 C-7.76074493 60.38335717 -11.6077643 62.67661894 -15.9375 64.625 C-15.28523438 65.08648438 -14.63296875 65.54796875 -13.9609375 66.0234375 C-0.52427514 76.05138906 3.82827332 90.17256744 7.24609375 106.12890625 C8.37590456 110.96709131 9.80491908 115.70187579 11.26171875 120.45043945 C12.79461819 125.50209502 13.90815345 130.43044051 15.0625 135.625 C3.1825 135.625 -8.6975 135.625 -20.9375 135.625 C-22.154375 131.561875 -23.37125 127.49875 -24.625 123.3125 C-25.02468994 121.97944824 -25.42437988 120.64639648 -25.83618164 119.27294922 C-27.70248491 112.98887231 -29.45232698 106.70691827 -30.98364258 100.33325195 C-33.07263656 91.68740717 -35.21080633 85.11375009 -42.5625 79.6875 C-50.21243898 76.26515888 -57.00360244 77.15052339 -65.9375 76.625 C-65.9375 96.095 -65.9375 115.565 -65.9375 135.625 C-77.1575 135.625 -88.3775 135.625 -99.9375 135.625 C-99.9375 86.785 -99.9375 37.945 -99.9375 -12.375 C-70.7963449 -18.85081224 -23.35696188 -21.83368175 0 0 Z " fill="#1568B3" transform="translate(1614.9375,1009.375)"/>
<path d="M0 0 C12.24966179 -0.49347569 23.02065828 0.69433101 34.78662109 4.09863281 C36.11333989 4.47660266 37.44015835 4.85422287 38.76708984 5.23144531 C39.76353516 5.51761719 40.75998047 5.80378906 41.78662109 6.09863281 C42.0902773 10.95713204 41.55008073 14.13108245 39.65380859 18.70019531 C37.85298757 23.68084445 36.89790274 28.92841466 35.78662109 34.09863281 C31.70295462 33.5460994 27.97846398 32.54852215 24.07788086 31.23120117 C12.08652807 27.26933725 -0.41128596 25.60015298 -12.33056641 30.83300781 C-15.25166894 32.79657051 -16.85626962 34.85553087 -17.83056641 38.24707031 C-18.4280246 43.40693652 -18.54305491 46.81762081 -15.21337891 51.09863281 C-8.13511424 56.17106286 -0.17522339 59.41152826 7.84912109 62.66113281 C27.73955918 70.7570106 27.73955918 70.7570106 35.09912109 77.59863281 C35.89962891 78.33082031 36.70013672 79.06300781 37.52490234 79.81738281 C41.27785836 83.60274777 44.06091388 87.10086703 45.97412109 92.09863281 C46.29767578 92.92363281 46.62123047 93.74863281 46.95458984 94.59863281 C50.65651747 105.72179562 49.47819786 117.47320261 44.78662109 128.09863281 C36.54146621 142.46716457 24.7613627 148.87060992 9.34912109 153.26660156 C-8.26555196 157.38055481 -28.03579805 156.62814169 -45.21337891 151.09863281 C-46.80666016 150.61330078 -46.80666016 150.61330078 -48.43212891 150.11816406 C-53.40993322 148.405296 -53.40993322 148.405296 -55.21337891 147.09863281 C-57.32338826 142.3073452 -55.24492439 137.31860361 -53.90087891 132.53613281 C-53.67464844 131.68599609 -53.44841797 130.83585937 -53.21533203 129.95996094 C-52.16838243 126.11310001 -51.09018739 122.63194833 -49.21337891 119.09863281 C-45.57928992 119.71481746 -42.18448437 120.73532581 -38.69555664 121.91430664 C-31.14412587 124.44166908 -24.21812388 125.92528165 -16.21337891 126.09863281 C-14.98490234 126.17210937 -13.75642578 126.24558594 -12.49072266 126.32128906 C-4.36946179 126.63833528 2.15163791 126.14122003 8.78662109 121.09863281 C11.64146767 117.77234368 12.68314662 115.19546221 13.09912109 110.78613281 C12.66480716 105.66122841 10.98511027 103.01974252 7.11474609 99.63769531 C-0.9542103 93.72671563 -10.83411544 90.46006456 -20.14697266 87.01269531 C-33.80930827 81.89751686 -45.48102713 73.22671877 -52.21337891 60.09863281 C-53.99341347 54.83734983 -54.56906624 50.21212538 -54.52587891 44.72363281 C-54.52023926 43.97339844 -54.51459961 43.22316406 -54.50878906 42.45019531 C-54.25991011 31.09540104 -49.67679786 22.91709668 -42.21337891 14.47363281 C-30.94563653 3.7305525 -14.91640731 0.66470644 0 0 Z " fill="#1568B3" transform="translate(1699.21337890625,992.9013671875)"/>
<path d="M0 0 C38.61 0 77.22 0 117 0 C117 9.24 117 18.48 117 28 C103.47 28 89.94 28 76 28 C76 67.93 76 107.86 76 149 C64.45 149 52.9 149 41 149 C41 109.07 41 69.14 41 28 C27.47 28 13.94 28 0 28 C0 18.76 0 9.52 0 0 Z " fill="#1467B3" transform="translate(1220,996)"/>
<path d="M0 0 C1.12148437 0.01353516 1.12148437 0.01353516 2.265625 0.02734375 C11.94145181 0.3291893 18.64721974 3.47498292 25.65234375 10.18359375 C35.86593015 21.49499366 38.42210108 35.49667719 38.25 50.3125 C38.23573975 52.2910498 38.23573975 52.2910498 38.22119141 54.30957031 C38.01538509 63.92893387 37.05710149 71.81358993 32.6875 80.4375 C32.22988281 81.38109375 31.77226563 82.3246875 31.30078125 83.296875 C27.08735496 91.10037137 20.99686193 97.11375523 12.6875 100.4375 C2.94821716 102.79006325 -7.58157135 102.30609141 -16.375 97.3125 C-26.36572742 90.56729264 -32.3312945 80.05300751 -34.79321289 68.39257812 C-38.09816235 50.43329858 -37.57075362 32.17006339 -27.93359375 16.14453125 C-20.93142066 6.28043456 -12.4010243 -0.17939999 0 0 Z " fill="#FDFDFE" transform="translate(1140.3125,1019.5625)"/>
<path d="M0 0 C0.73154297 -0.00233643 1.46308594 -0.00467285 2.21679688 -0.00708008 C10.06205505 0.24848515 16.55667796 3.08255504 22.9375 7.625 C23.4325 9.11 23.4325 9.11 23.9375 10.625 C24.9275 10.955 25.9175 11.285 26.9375 11.625 C38.71466429 26.98176643 39.97212773 46.52862267 37.62402344 65.10498047 C36.15022463 73.85165602 33.1416405 81.42475081 27.9375 88.625 C27.339375 89.5325 26.74125 90.44 26.125 91.375 C18.80851574 98.90052667 10.62627678 101.87744008 0.1875 102.125 C-9.31885076 102.14368948 -15.946864 98.71933557 -22.9375 92.3125 C-26.44565883 88.51059582 -28.81628688 84.2583326 -31.0625 79.625 C-31.619375 78.490625 -32.17625 77.35625 -32.75 76.1875 C-35.84948626 67.77460873 -36.38029443 59.52866908 -36.3125 50.625 C-36.32023437 49.60921875 -36.32796875 48.5934375 -36.3359375 47.546875 C-36.31160122 38.05572718 -35.11286833 29.84921875 -30.75 21.375 C-30.17636719 20.23546875 -29.60273437 19.0959375 -29.01171875 17.921875 C-26.26729717 13.28000764 -23.17097245 9.05406012 -18.6875 5.9375 C-18.16414063 5.56238281 -17.64078125 5.18726563 -17.1015625 4.80078125 C-11.41774871 1.52333307 -6.58963154 0.01600165 0 0 Z " fill="#FDFDFE" transform="translate(1416.0625,1019.375)"/>
<path d="M0 0 C5.878125 -0.1546875 5.878125 -0.1546875 11.875 -0.3125 C13.69620361 -0.38078003 13.69620361 -0.38078003 15.55419922 -0.45043945 C23.97880698 -0.55668959 30.61162086 1.07614685 37.00195312 6.79003906 C40.69881111 10.68486357 41.43034797 14.26431507 41.625 19.5625 C41.25006322 26.93341622 39.50255701 30.49744299 34.25 35.75 C23.64790115 43.08991459 12.97642931 42 0 42 C0 28.14 0 14.28 0 0 Z " fill="#FBFCFD" transform="translate(1549,1020)"/>
<path d="M0 0 C0.33 0.99 0.66 1.98 1 3 C-2.3 6.3 -5.6 9.6 -9 13 C-9.66 12.34 -10.32 11.68 -11 11 C-7.37 7.37 -3.74 3.74 0 0 Z " fill="#1F6FB7" transform="translate(1095,1008)"/>
</svg>
